<?xml version="1.0" encoding="utf-8"?>
<!-- Generator: Adobe Illustrator 19.0.0, SVG Export Plug-In . SVG Version: 6.00 Build 0)  -->
<svg version="1.2" baseProfile="tiny" id="Layer_1" xmlns="http://www.w3.org/2000/svg" xmlns:xlink="http://www.w3.org/1999/xlink"
	 x="0px" y="0px" viewBox="0 0 500.5 358.5" xml:space="preserve">
<rect x="205.6" y="304.8" fill="#212121" width="89.4" height="48.9"/>
<rect x="150.3" y="353.7" fill="#010202" width="200" height="4.8"/>
<rect x="205.6" y="304.9" fill="#212121" width="89.4" height="18.1"/>
<g>
	<path fill="#212121" stroke="#000000" stroke-miterlimit="10" d="M500.5,282.8c0,12.2-9.8,22-22,22H22c-12.2,0-22-9.8-22-22V22
		C0,9.8,9.8,0,22,0h456.5c12.2,0,22,9.8,22,22V282.8z"/>
	<path fill="#010202" d="M500.5,282.8c0,12.2-9.8,22-22,22H22C9.8,304.8,478.5,0,478.5,0c12.2,0,22,9.8,22,22V282.8z"/>
</g>
<g>
	<rect x="21.2" y="20.2" fill="#FFFFFF" width="458" height="262.3"/>
	<path d="M478.8,20.7V282h-457V20.7H478.8 M479.8,19.7h-459V283h459V19.7L479.8,19.7z"/>
</g>
<circle fill="#282727" cx="250.3" cy="10.6" r="4.8"/>
<circle cx="250.3" cy="10.6" r="2.1"/>
<g>
</g>
<g>
</g>
<g>
</g>
<g>
</g>
<g>
</g>
<g>
</g>
</svg>
